<?xml version="1.0" encoding="UTF-8" standalone="no"?>
<svg
   width="40"
   height="40"
   viewBox="0 0 40 40"
   fill="none"
   version="1.1"
   id="svg4"
   sodipodi:docname="Bloodhound-Active.svg"
   inkscape:version="1.1.1 (3bf5ae0d25, 2021-09-20)"
   xmlns:inkscape="http://www.inkscape.org/namespaces/inkscape"
   xmlns:sodipodi="http://sodipodi.sourceforge.net/DTD/sodipodi-0.dtd"
   xmlns="http://www.w3.org/2000/svg"
   xmlns:svg="http://www.w3.org/2000/svg">
  <defs
     id="defs8" />
  <sodipodi:namedview
     id="namedview6"
     pagecolor="#ffffff"
     bordercolor="#666666"
     borderopacity="1.0"
     inkscape:pageshadow="2"
     inkscape:pageopacity="0.0"
     inkscape:pagecheckerboard="0"
     showgrid="false"
     inkscape:zoom="20.292683"
     inkscape:cx="19.982572"
     inkscape:cy="20.524639"
     inkscape:window-width="1920"
     inkscape:window-height="1017"
     inkscape:window-x="-8"
     inkscape:window-y="-8"
     inkscape:window-maximized="1"
     inkscape:current-layer="svg4" />
  <path
     fill-rule="evenodd"
     clip-rule="evenodd"
     d="M 0,20.000024 C 0,8.9546674 8.9541615,0 19.999395,0 31.045686,0 40,8.9544324 40,20.000024 40,31.045497 31.045686,40 19.999395,40 8.9541615,40 0,31.045262 0,20.000024 Z m 38.2369,0 c 0,-10.071921 -8.164916,-18.2369795 -18.237505,-18.2369795 -10.0714147,0 -18.2362951,8.1652936 -18.2362951,18.2369795 0,10.071567 8.1648804,18.236932 18.2362951,18.236932 3.618116,0 6.990103,-1.053596 9.825873,-2.870589 l -0.35932,-0.40456 c -0.323352,-0.363893 -0.290324,-0.921132 0.07358,-1.244475 0.330993,-0.29384 0.821487,-0.29337 1.150952,-0.0174 l 0.09368,0.09109 0.486146,0.547366 c 3.190858,-2.511516 5.522734,-6.065108 6.4828,-10.147731 l -6.263823,-5.612594 -7.014435,-7.87117 c -0.02151,-0.02915 -0.05172,-0.05042 -0.0858,-0.06135 l -0.0536,-0.0083 H 17.2137 c -0.05078,0 -0.09838,0.02268 -0.130352,0.06006 l -0.02645,0.04196 -2.007465,4.566285 c -0.286563,0.646802 -0.899181,1.082157 -1.59443,1.145274 l -0.17537,0.008 -4.0622995,-5.87e-4 -2.1476673,3.678181 -0.1028474,-0.06006 0.9736542,2.419602 c 0.078188,0.193817 0.2506893,0.330512 0.4516122,0.365538 l 0.1024949,0.0089 h 6.4400159 c 0.392349,0 0.933738,0.221909 1.878407,0.696991 l 0.486263,0.248354 0.551263,0.290902 1.040228,0.570169 c 0.423967,0.239421 0.573596,0.77715 0.334167,1.200986 -0.239429,0.423953 -0.777175,0.573577 -1.201142,0.334155 L 17.556679,25.952767 17.019521,25.661512 16.256098,25.261653 15.793226,25.03187 14.934596,24.633422 H 8.4945801 c -0.8983699,0 -1.7130867,-0.509755 -2.110795,-1.3043 L 6.3050571,23.15458 3.8572397,17.069373 C 3.4214485,15.97993 4.1699079,14.798572 5.3110802,14.702075 l 0.1510036,-0.0063 h 7.8175492 c 0.05078,0 0.09826,-0.0228 0.130352,-0.06018 l 0.02645,-0.04196 2.006525,-4.56417 C 15.728112,9.3814417 16.342258,8.9453821 17.038213,8.88203 L 17.2137,8.87416 h 7.121748 c 0.553261,0 1.077019,0.2360128 1.404838,0.5975545 l 0.10179,0.1250586 6.893015,7.7377669 5.376867,4.811349 c 0.08251,-0.703808 0.124945,-1.419956 0.124945,-2.14586 z M 7.1758636,16.457832 5.5106275,16.457715 6.1901027,18.146123 Z m 21.8354404,0.368241 c -0.112604,-0.419369 -0.520703,-0.701456 -0.963358,-0.644686 -0.482855,0.06194 -0.824191,0.503643 -0.762247,0.986599 l 1.810116,14.113759 0.0014,0.04878 c -0.0014,0.01881 -0.0049,0.03315 -0.0074,0.04313 -0.0029,0.01211 -0.0043,0.0181 0.0012,0.0181 H 21.02542 l 0.0041,-0.0063 c -1.17e-4,-0.0016 -4.7e-4,-0.0035 -9.4e-4,-0.0059 l -0.0015,-0.0063 c -0.004,-0.01693 -0.01081,-0.04596 -0.0063,-0.08886 l 2.754902,-13.910539 0.01528,-0.118946 c 0.02621,-0.433474 -0.271282,-0.830277 -0.709119,-0.916901 -0.477565,-0.0945 -0.941377,0.216149 -1.035762,0.693699 L 19.27919,31.02199 19.26732,31.194181 c -0.03197,1.079923 0.737799,1.960623 1.758163,1.960623 h 8.065595 l 0.1615,-0.0075 c 1.008023,-0.09332 1.723841,-1.052655 1.592314,-2.088737 L 29.034541,16.943727 Z M 18.970802,12.642016 c 0.486851,0 0.88155,0.39457 0.88155,0.881522 0,0.446286 -0.33158,0.814997 -0.761894,0.873413 l -0.119656,0.0081 h -1.102525 c -0.486851,0 -0.88155,-0.394687 -0.88155,-0.881523 0,-0.446285 0.331698,-0.815114 0.762012,-0.873529 l 0.119538,-0.008 z"
     fill="#000000"
     id="path2"
     style="stroke-width:1.17538" />
</svg>
