<?xml version="1.0" encoding="UTF-8" standalone="no"?>
<svg
   width="40"
   height="40"
   viewBox="0 0 40 40"
   fill="none"
   version="1.1"
   id="svg4"
   sodipodi:docname="Drawing-Tools.svg"
   inkscape:version="1.1.1 (3bf5ae0d25, 2021-09-20)"
   xmlns:inkscape="http://www.inkscape.org/namespaces/inkscape"
   xmlns:sodipodi="http://sodipodi.sourceforge.net/DTD/sodipodi-0.dtd"
   xmlns="http://www.w3.org/2000/svg"
   xmlns:svg="http://www.w3.org/2000/svg">
  <defs
     id="defs8" />
  <sodipodi:namedview
     id="namedview6"
     pagecolor="#ffffff"
     bordercolor="#666666"
     borderopacity="1.0"
     inkscape:pageshadow="2"
     inkscape:pageopacity="0.0"
     inkscape:pagecheckerboard="0"
     showgrid="false"
     inkscape:zoom="8"
     inkscape:cx="48.0625"
     inkscape:cy="25.1875"
     inkscape:window-width="1920"
     inkscape:window-height="1017"
     inkscape:window-x="-8"
     inkscape:window-y="-8"
     inkscape:window-maximized="1"
     inkscape:current-layer="svg4" />
  <path
     fill-rule="evenodd"
     clip-rule="evenodd"
     d="m 39.011102,0 c 0.50063,0 0.914369,0.3720122 0.979898,0.85465504 L 40,0.98883304 V 26.844828 c 0,0.500614 -0.372077,0.914341 -0.854642,0.979867 l -0.134222,0.0089 h -8.363157 c -0.546117,0 -0.988865,-0.442732 -0.988865,-0.988832 0,-0.500614 0.372077,-0.914342 0.854643,-0.979736 l 0.134222,-0.0091 7.373238,-6.6e-4 V 1.9770069 H 14.143399 l 0.0011,7.3773411 c 0,0.5006121 -0.372077,0.914341 -0.854644,0.979868 l -0.134221,0.009 c -0.50063,0 -0.91437,-0.3719319 -0.979898,-0.8546141 l -0.0089,-0.1342177 V 0.98883304 c 0,-0.50059999 0.372077,-0.91432777 0.854642,-0.9798017 L 13.1557,1.4e-7 Z M 1.0552718e-8,26.083822 C 1.0552718e-8,18.398347 6.2308882,12.167644 13.91662,12.167644 c 7.685984,0 13.917939,6.230967 13.917939,13.916178 C 27.834559,33.769165 21.602604,40 13.91662,40 6.2308882,40 1.0552718e-8,33.769297 1.0552718e-8,26.083822 Z M 25.85683,26.083822 c 0,-6.593012 -5.346461,-11.938512 -11.94021,-11.938512 -6.5934848,0 -11.9388908,5.345236 -11.9388908,11.938512 0,6.593275 5.345406,11.938512 11.9388908,11.938512 6.593749,0 11.94021,-5.345501 11.94021,-11.938512 z m -6.400854,-5.538257 c -0.386185,-0.386172 -1.012334,-0.386172 -1.398519,-1.31e-4 l -9.680324,9.678699 -0.095721,0.111016 c -0.287298,0.387094 -0.2553907,0.936358 0.095591,1.287461 0.3861845,0.386172 1.0123335,0.386304 1.3985182,1.31e-4 l 9.6803248,-9.678699 0.09572,-0.11088 c 0.287298,-0.387095 0.255392,-0.936492 -0.09558,-1.287593 z m -7.313774,-1.613247 c 0.386185,-0.386173 1.012202,-0.386173 1.398386,0 0.351113,0.350968 0.383021,0.900366 0.09572,1.28746 l -0.09572,0.110881 -5.376786,5.376616 c -0.3861846,0.386172 -1.0122018,0.386172 -1.3983863,0 -0.3511129,-0.35097 -0.3830202,-0.900366 -0.095722,-1.287461 l 0.095722,-0.110881 z m 8.926942,7.527656 c -0.386185,-0.386172 -1.012202,-0.386172 -1.398386,0 l -5.378105,5.377934 -0.09573,0.110881 c -0.287297,0.387093 -0.25539,0.93649 0.09573,1.28746 0.386184,0.386172 1.012201,0.386172 1.398386,0 l 5.378105,-5.377935 0.09572,-0.11088 c 0.287299,-0.387094 0.255392,-0.936491 -0.09572,-1.28746 z"
     fill="#ffffff"
     id="path2"
     style="stroke-width:1.31846" />
</svg>
