<?xml version="1.0" encoding="UTF-8" standalone="no"?>
<!-- Created with Inkscape (http://www.inkscape.org/) -->

<svg
   xmlns:dc="http://purl.org/dc/elements/1.1/"
   xmlns:cc="http://creativecommons.org/ns#"
   xmlns:rdf="http://www.w3.org/1999/02/22-rdf-syntax-ns#"
   xmlns:svg="http://www.w3.org/2000/svg"
   xmlns="http://www.w3.org/2000/svg"
   xmlns:sodipodi="http://sodipodi.sourceforge.net/DTD/sodipodi-0.dtd"
   xmlns:inkscape="http://www.inkscape.org/namespaces/inkscape"
   inkscape:version="0.48.2 r9819"
   version="1.1"
   id="svg2"
   height="32"
   width="32"
   sodipodi:docname="delete.svg">
  <sodipodi:namedview
     id="base"
     pagecolor="#ffffff"
     bordercolor="#666666"
     borderopacity="1.0"
     inkscape:pageopacity="0.0"
     inkscape:pageshadow="2"
     inkscape:zoom="5.6568543"
     inkscape:cx="11.263084"
     inkscape:cy="23.977589"
     inkscape:document-units="px"
     inkscape:current-layer="layer1"
     showgrid="false"
     inkscape:window-width="740"
     inkscape:window-height="515"
     inkscape:window-x="4"
     inkscape:window-y="75"
     inkscape:window-maximized="0" />
  <defs
     id="defs4">
    <marker
       style="overflow:visible"
       id="TriangleOutM"
       refX="0.0"
       refY="0.0"
       orient="auto"
       inkscape:stockid="TriangleOutM">
      <path
         transform="scale(0.4)"
         style="fill-rule:evenodd;stroke:#000000;stroke-width:1.0pt;marker-start:none"
         d="M 5.77,0.0 L -2.88,5.0 L -2.88,-5.0 L 5.77,0.0 z "
         id="path3921" />
    </marker>
    <marker
       style="overflow:visible"
       id="TriangleOutS"
       refX="0.0"
       refY="0.0"
       orient="auto"
       inkscape:stockid="TriangleOutS">
      <path
         transform="scale(0.2)"
         style="fill-rule:evenodd;stroke:#000000;stroke-width:1.0pt;marker-start:none"
         d="M 5.77,0.0 L -2.88,5.0 L -2.88,-5.0 L 5.77,0.0 z "
         id="path3924" />
    </marker>
    <marker
       style="overflow:visible"
       id="TriangleOutMz"
       refX="0.0"
       refY="0.0"
       orient="auto"
       inkscape:stockid="TriangleOutMz">
      <path
         transform="scale(0.4)"
         style="marker-start:none;stroke:#ffffff;stroke-width:1.0pt;fill:#ffffff;fill-rule:evenodd"
         d="M 5.77,0.0 L -2.88,5.0 L -2.88,-5.0 L 5.77,0.0 z "
         id="path3777" />
    </marker>
  </defs>
  <metadata
     id="metadata7">
    <rdf:RDF>
      <cc:Work
         rdf:about="">
        <dc:format>image/svg+xml</dc:format>
        <dc:type
           rdf:resource="http://purl.org/dc/dcmitype/StillImage" />
        <dc:title />
      </cc:Work>
    </rdf:RDF>
  </metadata>
  <g
     transform="translate(0,-1020.3622)"
     id="layer1"
     inkscape:groupmode="layer"
     inkscape:label="Layer 1">
    <path
       transform="matrix(3.7101449,0,0,4.3389831,-9.2753623,1031.752)"
       d="M 11.125,1.0625 C 11.125,3.09905 9.194228,4.75 6.8125,4.75 4.430772,4.75 2.5,3.09905 2.5,1.0625 c 0,-2.03655002 1.930772,-3.6875 4.3125,-3.6875 2.381728,0 4.3125,1.65094998 4.3125,3.6875 z"
       sodipodi:ry="3.6875"
       sodipodi:rx="4.3125"
       sodipodi:cy="1.0625"
       sodipodi:cx="6.8125"
       id="path4603"
       style="fill:#e00000;fill-opacity:1;stroke:none"
       sodipodi:type="arc" />
    <path
       id="path3000"
       transform="translate(0,1020.3622)"
       d="M 8 14 L 10 28 L 21 28 L 23 14 L 8 14 z M 12 15.9375 L 13 25.9375 L 12 26.0625 L 11 16.0625 L 12 15.9375 z M 19 15.9375 L 20 16.0625 L 19 26.0625 L 18 25.9375 L 19 15.9375 z M 15 16 L 16 16 L 16 26 L 15 26 L 15 16 z "
       style="fill:#ffffff;fill-opacity:1;stroke:none" />
    <g
       id="g2992">
      <path
         style="font-size:medium;font-style:normal;font-variant:normal;font-weight:normal;font-stretch:normal;text-indent:0;text-align:start;text-decoration:none;line-height:normal;letter-spacing:normal;word-spacing:normal;text-transform:none;direction:ltr;block-progression:tb;writing-mode:lr-tb;text-anchor:start;baseline-shift:baseline;color:#000000;fill:#ffffff;fill-opacity:1;stroke:none;stroke-width:1px;marker:none;visibility:visible;display:inline;overflow:visible;enable-background:accumulate;font-family:Sans;-inkscape-font-specification:Sans"
         d="m 9.46875,1025.3622 c -1.2238858,0.024 -2.8752751,0.6545 -4.46875,1.5 l 0,0 c 2.9380503,-1.559 5.664518,-0.7464 6.8125,0.4685 1.037497,1.3035 0.854483,1.9568 1.198167,2.9764 l 2.589257,-0.9771 c -0.384219,-1.0246 -0.975159,-2.164 -2.689232,-3.2133 -0.945425,-0.4475 -2.10757,-0.7342 -3.441942,-0.7548 z"
         id="path3770"
         inkscape:connector-curvature="0"
         sodipodi:nodetypes="ccccccccc" />
      <path
         id="path2998"
         d="m 15.560393,1033.1482 -3.087546,-2.5374 3.745317,-1.4045 -0.657771,3.9419 z"
         style="fill:#ffffff;fill-rule:evenodd;stroke:#ffffff;stroke-width:0.4pt;marker-start:none"
         inkscape:connector-curvature="0" />
    </g>
    <path
       id="path4590"
       transform="translate(0,1020.3622)"
       d="M 19.6875 6.125 A 1.0001 1.0001 0 0 0 19.03125 7.65625 L 26.15625 18.65625 A 1.0001 1.0001 0 1 0 27.84375 17.59375 L 25.03125 13.25 L 26.5 12.21875 L 24.75 9.78125 L 23.40625 10.71875 L 20.71875 6.59375 A 1.0001 1.0001 0 0 0 19.6875 6.125 z "
       style="font-size:medium;font-style:normal;font-variant:normal;font-weight:normal;font-stretch:normal;text-indent:0;text-align:start;text-decoration:none;line-height:normal;letter-spacing:normal;word-spacing:normal;text-transform:none;direction:ltr;block-progression:tb;writing-mode:lr-tb;text-anchor:start;baseline-shift:baseline;color:#000000;fill:#ffffff;fill-opacity:1;stroke:none;stroke-width:2;marker:none;visibility:visible;display:inline;overflow:visible;enable-background:accumulate;font-family:Sans;-inkscape-font-specification:Sans" />
  </g>
</svg>
