<?xml version="1.0" encoding="UTF-8" standalone="no"?>
<!-- Created with Inkscape (http://www.inkscape.org/) -->

<svg
   xmlns:dc="http://purl.org/dc/elements/1.1/"
   xmlns:cc="http://creativecommons.org/ns#"
   xmlns:rdf="http://www.w3.org/1999/02/22-rdf-syntax-ns#"
   xmlns:svg="http://www.w3.org/2000/svg"
   xmlns="http://www.w3.org/2000/svg"
   xmlns:sodipodi="http://sodipodi.sourceforge.net/DTD/sodipodi-0.dtd"
   xmlns:inkscape="http://www.inkscape.org/namespaces/inkscape"
   id="svg2"
   version="1.1"
   inkscape:version="0.91 r13725"
   width="64"
   height="64"
   viewBox="0 0 64 64"
   sodipodi:docname="binoculars.svg">
  <metadata
     id="metadata8">
    <rdf:RDF>
      <cc:Work
         rdf:about="">
        <dc:format>image/svg+xml</dc:format>
        <dc:type
           rdf:resource="http://purl.org/dc/dcmitype/StillImage" />
        <dc:title></dc:title>
      </cc:Work>
    </rdf:RDF>
  </metadata>
  <defs
     id="defs6" />
  <sodipodi:namedview
     pagecolor="#ffffff"
     bordercolor="#666666"
     borderopacity="1"
     objecttolerance="10"
     gridtolerance="10"
     guidetolerance="10"
     inkscape:pageopacity="0"
     inkscape:pageshadow="2"
     inkscape:window-width="1920"
     inkscape:window-height="1137"
     id="namedview4"
     showgrid="false"
     inkscape:snap-intersection-paths="true"
     showguides="false"
     inkscape:zoom="8"
     inkscape:cx="9.4636859"
     inkscape:cy="49.718009"
     inkscape:window-x="1192"
     inkscape:window-y="-8"
     inkscape:window-maximized="1"
     inkscape:current-layer="svg2" />
  <g
     id="g4228"
     transform="matrix(0.93412469,0,0,0.93412469,2.0523401,3.9976222)">
    <path
       sodipodi:nodetypes="cccccccccccc"
       inkscape:connector-curvature="0"
       id="path4226"
       d="M 4.1067552,23.955113 15.364591,13.664 l 10.910336,1.94 1.223979,2.348 9.510187,0 0.931556,-2.351906 10.069935,0.306339 1.312151,-1.691129 10.8094,9.838015 -0.271704,4.852719 -56.4567306,0.05878 z"
       style="fill:#000000;fill-opacity:1;fill-rule:evenodd;stroke:none;stroke-width:1px;stroke-linecap:butt;stroke-linejoin:miter;stroke-opacity:1" />
    <g
       id="g4208">
      <path
         style="opacity:1;fill:#ffffff;fill-opacity:1;fill-rule:nonzero;stroke:#000000;stroke-width:6.26586628;stroke-linecap:round;stroke-linejoin:miter;stroke-miterlimit:4;stroke-dasharray:none;stroke-dashoffset:46.31445694;stroke-opacity:1"
         d="M 24.870258,34.085789 A 10.967822,10.967822 0 0 1 13.902436,45.053611 10.967822,10.967822 0 0 1 2.9346142,34.085789 10.967822,10.967822 0 0 1 13.902436,23.117967 10.967822,10.967822 0 0 1 24.870258,34.085789 Z"
         id="path4160"
         inkscape:connector-curvature="0" />
      <path
         style="opacity:1;fill:#ffffff;fill-opacity:1;fill-rule:nonzero;stroke:#000000;stroke-width:6.26586628;stroke-linecap:round;stroke-linejoin:miter;stroke-miterlimit:4;stroke-dasharray:none;stroke-dashoffset:46.31445694;stroke-opacity:1"
         d="M 61.184577,34.085789 A 10.967822,10.967822 0 0 1 50.216755,45.053611 10.967822,10.967822 0 0 1 39.248933,34.085789 10.967822,10.967822 0 0 1 50.216755,23.117967 10.967822,10.967822 0 0 1 61.184577,34.085789 Z"
         id="path4160-1"
         inkscape:connector-curvature="0" />
      <path
         style="opacity:1;fill:#ffffff;fill-opacity:1;fill-rule:nonzero;stroke:#000000;stroke-width:3.65100002;stroke-linecap:round;stroke-linejoin:miter;stroke-miterlimit:4;stroke-dasharray:none;stroke-dashoffset:46.31445694;stroke-opacity:1"
         d="m 37.677323,31.880573 a 5.6177258,5.6177258 0 0 1 -5.617726,5.617726 5.6177258,5.6177258 0 0 1 -5.617726,-5.617726 5.6177258,5.6177258 0 0 1 5.617726,-5.617726 5.6177258,5.6177258 0 0 1 5.617726,5.617726 z"
         id="path4160-7"
         inkscape:connector-curvature="0" />
      <path
         style="opacity:1;fill:#000000;fill-opacity:1;fill-rule:nonzero;stroke:#000000;stroke-width:3.16300011;stroke-linecap:round;stroke-linejoin:miter;stroke-miterlimit:4;stroke-dasharray:none;stroke-dashoffset:46.31445694;stroke-opacity:1"
         d="m 24.820089,16.54237 a 4.5658526,3.1929717 0 0 1 -4.565853,3.192972 4.5658526,3.1929717 0 0 1 -4.565852,-3.192972 4.5658526,3.1929717 0 0 1 4.565852,-3.192972 4.5658526,3.1929717 0 0 1 4.565853,3.192972 z"
         id="path4183"
         inkscape:connector-curvature="0" />
      <path
         style="opacity:1;fill:#000000;fill-opacity:1;fill-rule:nonzero;stroke:#000000;stroke-width:3.1633625;stroke-linecap:round;stroke-linejoin:miter;stroke-miterlimit:4;stroke-dasharray:none;stroke-dashoffset:46.31445694;stroke-opacity:1"
         d="m 48.531955,16.54237 a 4.5658526,3.1929717 0 0 1 -4.565852,3.192972 4.5658526,3.1929717 0 0 1 -4.565853,-3.192972 4.5658526,3.1929717 0 0 1 4.565853,-3.192972 4.5658526,3.1929717 0 0 1 4.565852,3.192972 z"
         id="path4183-0"
         inkscape:connector-curvature="0" />
      <path
         style="opacity:1;fill:#000000;fill-opacity:1;fill-rule:nonzero;stroke:#000000;stroke-width:1.43285406;stroke-linecap:round;stroke-linejoin:miter;stroke-miterlimit:4;stroke-dasharray:none;stroke-dashoffset:46.31445694;stroke-opacity:1"
         d="m 34.488352,18.000002 a 2.3781838,1.44459 0 0 1 -2.378184,1.44459 2.3781838,1.44459 0 0 1 -2.378183,-1.44459 2.3781838,1.44459 0 0 1 2.378183,-1.44459 2.3781838,1.44459 0 0 1 2.378184,1.44459 z"
         id="path4200"
         inkscape:connector-curvature="0" />
    </g>
  </g>
</svg>
