<?xml version="1.0" encoding="UTF-8" standalone="no"?>
<svg width="128px" height="128px" viewBox="0 0 128 128" version="1.1" xmlns="http://www.w3.org/2000/svg" xmlns:xlink="http://www.w3.org/1999/xlink">
    <!-- Generator: Sketch 3.8.3 (29802) - http://www.bohemiancoding.com/sketch -->
    <title>Go-To</title>
    <desc>Created with Sketch.</desc>
    <defs></defs>
    <g id="Page-1" stroke="none" stroke-width="1" fill="none" fill-rule="evenodd">
        <g id="Desktop-HD" transform="translate(0.000000, -128.000000)">
            <g id="EditCoords" transform="translate(0.000000, 128.000000)">
                <polygon id="Fill-1" points="0 128 128 128 128 0 0 0"></polygon>
                <path d="M58,123.8745 C50.573,123.0445 43.526,117.6215 37.974,108.3685 C31.542,97.6485 28,83.3125 28,67.9995 C28,52.6875 31.542,38.3515 37.974,27.6315 C43.526,18.3785 50.573,12.9555 58,12.1255 L58,123.8745 Z M4,67.9995 C4,42.7375 20.818,21.3385 43.842,14.3865 C32.077,24.2555 24,44.5495 24,67.9995 C24,91.4505 32.077,111.7445 43.842,121.6135 C20.818,114.6615 4,93.2625 4,67.9995 L4,67.9995 Z M115.492,60.5025 C115.822,62.9565 116,65.4575 116,67.9995 C116,93.2625 99.182,114.6615 76.158,121.6135 C87.923,111.7445 96,91.4505 96,67.9995 C96,66.5755 95.969,65.1625 95.91,63.7625 C94.538,63.6065 93.19,63.3715 91.868,63.0665 C91.95,64.6985 92,66.3415 92,67.9995 C92,83.3125 88.458,97.6485 82.026,108.3685 C76.474,117.6215 69.427,123.0445 62,123.8745 L62,12.1255 C63.718,12.3175 65.413,12.7665 67.076,13.4395 C67.796,11.8155 68.631,10.2565 69.573,8.7695 C66.455,8.2685 63.259,7.9995 60,7.9995 C26.863,7.9995 0,34.8625 0,67.9995 C0,101.1375 26.863,127.9995 60,127.9995 C93.137,127.9995 120,101.1375 120,67.9995 C120,64.7405 119.731,61.5455 119.231,58.4265 C118.029,59.1875 116.784,59.8855 115.492,60.5025 L115.492,60.5025 Z" id="Fill-3" fill="#000000"></path>
                <path d="M114,31 L103,31 L103,42 L97,42 L97,31 L86,31 L86,25 L97,25 L97,14 L103,14 L103,25 L114,25 L114,31 Z M100,0 C84.536,0 72,12.536 72,28 C72,43.464 84.536,56 100,56 C115.464,56 128,43.464 128,28 C128,12.536 115.464,0 100,0 L100,0 Z" id="Fill-5" fill="#000000"></path>
            </g>
        </g>
    </g>
</svg>