<?xml version="1.0" encoding="UTF-8" standalone="no"?>
<!-- Created with Inkscape (http://www.inkscape.org/) -->

<svg
   xmlns:dc="http://purl.org/dc/elements/1.1/"
   xmlns:cc="http://creativecommons.org/ns#"
   xmlns:rdf="http://www.w3.org/1999/02/22-rdf-syntax-ns#"
   xmlns:svg="http://www.w3.org/2000/svg"
   xmlns="http://www.w3.org/2000/svg"
   xmlns:xlink="http://www.w3.org/1999/xlink"
   xmlns:sodipodi="http://sodipodi.sourceforge.net/DTD/sodipodi-0.dtd"
   xmlns:inkscape="http://www.inkscape.org/namespaces/inkscape"
   width="48px"
   height="48px"
   id="svg3786"
   version="1.1"
   inkscape:version="0.48.5 r10040"
   sodipodi:docname="FollowMeActive.svg">
  <defs
     id="defs3788">
    <filter
       id="filter3767"
       inkscape:collect="always">
      <feGaussianBlur
         id="feGaussianBlur3769"
         stdDeviation="0.15453125"
         inkscape:collect="always" />
    </filter>
    <radialGradient
       gradientUnits="userSpaceOnUse"
       gradientTransform="matrix(0.84169894,-0.04172306,0.07478186,1.5086092,1.8019168,-11.755755)"
       r="13.40625"
       fy="26.708471"
       fx="24"
       cy="26.708471"
       cx="24"
       id="radialGradient3765"
       xlink:href="#linearGradient3759"
       inkscape:collect="always" />
    <linearGradient
       id="linearGradient3759">
      <stop
         id="stop3761"
         offset="0"
         style="stop-color:#000000;stop-opacity:0.5089286;" />
      <stop
         id="stop3763"
         offset="1"
         style="stop-color:#000000;stop-opacity:0;" />
    </linearGradient>
  </defs>
  <sodipodi:namedview
     id="base"
     pagecolor="#000000"
     bordercolor="#666666"
     borderopacity="1.0"
     inkscape:pageopacity="0"
     inkscape:pageshadow="2"
     inkscape:zoom="11.313709"
     inkscape:cx="4.0228514"
     inkscape:cy="24.782422"
     inkscape:current-layer="layer1"
     showgrid="true"
     inkscape:grid-bbox="true"
     inkscape:document-units="px"
     inkscape:window-width="1200"
     inkscape:window-height="1857"
     inkscape:window-x="-8"
     inkscape:window-y="-8"
     inkscape:window-maximized="1" />
  <metadata
     id="metadata3791">
    <rdf:RDF>
      <cc:Work
         rdf:about="">
        <dc:format>image/svg+xml</dc:format>
        <dc:type
           rdf:resource="http://purl.org/dc/dcmitype/StillImage" />
        <dc:title />
      </cc:Work>
    </rdf:RDF>
  </metadata>
  <g
     id="layer1"
     inkscape:label="Layer 1"
     inkscape:groupmode="layer">
    <path
       style="fill:#00d906;fill-opacity:1;fill-rule:nonzero;stroke:none"
       d="m 20.84375,6.5 c -3.878,0 -7,3.1219997 -7,7 l 0,7.09375 -0.75,0 c -1.385,0 -2.5,1.115 -2.5,2.5 l 0,15.90625 c 0,1.385 1.115,2.5 2.5,2.5 l 21.8125,0 c 1.385,0 2.5,-1.115 2.5,-2.5 l 0,-15.90625 c 0,-1.385 -1.115,-2.5 -2.5,-2.5 l -0.75,0 0,-7.09375 c 0,-3.8780003 -3.122,-7 -7,-7 l -6.3125,0 z m 1.09375,4.4375 4.125,0 c 1.662,0 3,1.338 3,3 l 0,0.59375 0,1.25 0,0.71875 0,1.96875 0,1.9375 -2.53125,0 -2.53125,0 -2.53125,0 -2.53125,0 0,-1.9375 0,-1.96875 0,-0.71875 0,-1.25 0,-0.59375 c 0,-1.662 1.338,-3 3,-3 z M 24,24.46875 c 2.323119,0 4.21875,1.895631 4.21875,4.21875 0,1.67827 -1.015982,3.106298 -2.4375,3.78125 l 0,4.875 -3.5625,0 0,-4.875 c -1.421518,-0.674952 -2.4375,-2.10298 -2.4375,-3.78125 0,-2.323119 1.895631,-4.21875 4.21875,-4.21875 z"
       id="rect3789"
       inkscape:connector-curvature="0" />
    <g
       inkscape:label="Layer 1"
       id="layer1-8"
       style="stroke:none">
      <path
         inkscape:connector-curvature="0"
         id="rect3789-8"
         d="m 20.84375,6.5 c -3.878,0 -7,3.1219997 -7,7 l 0,7.09375 -0.75,0 c -1.385,0 -2.5,1.115 -2.5,2.5 l 0,15.90625 c 0,1.385 1.115,2.5 2.5,2.5 l 21.8125,0 c 1.385,0 2.5,-1.115 2.5,-2.5 l 0,-15.90625 c 0,-1.385 -1.115,-2.5 -2.5,-2.5 l -0.75,0 0,-7.09375 c 0,-3.8780003 -3.122,-7 -7,-7 l -6.3125,0 z m 1.09375,4.4375 4.125,0 c 1.662,0 3,1.338 3,3 l 0,0.59375 0,1.25 0,0.71875 0,1.96875 0,1.9375 -2.53125,0 -2.53125,0 -2.53125,0 -2.53125,0 0,-1.9375 0,-1.96875 0,-0.71875 0,-1.25 0,-0.59375 c 0,-1.662 1.338,-3 3,-3 z M 24,24.46875 c 2.323119,0 4.21875,1.895631 4.21875,4.21875 0,1.67827 -1.015982,3.106298 -2.4375,3.78125 l 0,4.875 -3.5625,0 0,-4.875 c -1.421518,-0.674952 -2.4375,-2.10298 -2.4375,-3.78125 0,-2.323119 1.895631,-4.21875 4.21875,-4.21875 z"
         style="fill:url(#radialGradient3765);fill-opacity:1;fill-rule:nonzero;stroke:none;filter:url(#filter3767)" />
    </g>
  </g>
</svg>
