<?xml version="1.0" encoding="UTF-8" standalone="no"?>
<!-- Created with Inkscape (http://www.inkscape.org/) -->

<svg
   xmlns:dc="http://purl.org/dc/elements/1.1/"
   xmlns:cc="http://creativecommons.org/ns#"
   xmlns:rdf="http://www.w3.org/1999/02/22-rdf-syntax-ns#"
   xmlns:svg="http://www.w3.org/2000/svg"
   xmlns="http://www.w3.org/2000/svg"
   xmlns:sodipodi="http://sodipodi.sourceforge.net/DTD/sodipodi-0.dtd"
   xmlns:inkscape="http://www.inkscape.org/namespaces/inkscape"
   width="32px"
   height="32px"
   id="svg2985"
   version="1.1"
   inkscape:version="0.48.2 r9819"
   sodipodi:docname="Info.svg">
  <defs
     id="defs2987" />
  <sodipodi:namedview
     id="base"
     pagecolor="#a1a1a1"
     bordercolor="#666666"
     borderopacity="1.0"
     inkscape:pageopacity="1"
     inkscape:pageshadow="2"
     inkscape:zoom="24.746269"
     inkscape:cx="14.87877"
     inkscape:cy="16.688236"
     inkscape:current-layer="layer1"
     showgrid="true"
     inkscape:grid-bbox="true"
     inkscape:document-units="px"
     inkscape:window-width="1920"
     inkscape:window-height="1018"
     inkscape:window-x="-8"
     inkscape:window-y="-8"
     inkscape:window-maximized="1" />
  <metadata
     id="metadata2990">
    <rdf:RDF>
      <cc:Work
         rdf:about="">
        <dc:format>image/svg+xml</dc:format>
        <dc:type
           rdf:resource="http://purl.org/dc/dcmitype/StillImage" />
        <dc:title></dc:title>
      </cc:Work>
    </rdf:RDF>
  </metadata>
  <g
     id="layer1"
     inkscape:label="Layer 1"
     inkscape:groupmode="layer">
    <path
       sodipodi:type="arc"
       style="fill:none;stroke:#ffffff;stroke-width:2.1083169;stroke-miterlimit:4;stroke-opacity:1;stroke-dasharray:none"
       id="path2984"
       sodipodi:cx="15.875"
       sodipodi:cy="15.75"
       sodipodi:rx="15.875"
       sodipodi:ry="15.75"
       d="m 31.75,15.75 a 15.875,15.75 0 1 1 -31.75,0 15.875,15.75 0 1 1 31.75,0 z"
       transform="matrix(0.94488189,0,0,0.95238095,1,1.0000001)" />
    <g
       style="font-size:30.39434624px;font-style:italic;font-weight:bold;line-height:125%;letter-spacing:0px;word-spacing:0px;fill:#ffffff;fill-opacity:1;stroke:none;font-family:Times New Roman;-inkscape-font-specification:'Times New Roman, Bold Italic'"
       id="text3754">
      <path
         d="m 18.018375,5.4999994 c 0.61342,2.06e-5 1.130381,0.2127412 1.550883,0.6381626 0.420486,0.4254612 0.630733,0.9399483 0.630742,1.5434629 -9e-6,0.6035513 -0.212729,1.1180384 -0.638162,1.5434628 -0.42545,0.4254582 -0.939937,0.6381788 -1.543463,0.6381626 C 17.424729,9.8632665 16.915189,9.6505459 16.489753,9.2250877 16.064306,8.7996633 15.851586,8.2851762 15.85159,7.6816249 15.851586,7.0781103 16.061833,6.5636232 16.482332,6.138162 16.902821,5.7127406 17.414835,5.50002 18.018375,5.4999994 z m 0.920141,6.8268556 -3.042403,10.551943 c -0.168202,0.603536 -0.252301,0.999295 -0.252296,1.187279 -5e-6,0.108836 0.04452,0.210249 0.133568,0.30424 0.08904,0.09399 0.183035,0.140991 0.281979,0.14099 0.168193,1e-6 0.336391,-0.0742 0.504594,-0.222615 0.445224,-0.366076 0.979499,-1.028972 1.602827,-1.988693 l 0.504593,0.29682 c -1.493999,2.602121 -3.081983,3.90318 -4.763957,3.90318 -0.643112,0 -1.155125,-0.180565 -1.536043,-0.541696 C 11.990459,25.597173 11.8,25.139576 11.8,24.585512 c 0,-0.366076 0.0841,-0.831093 0.252297,-1.395053 l 2.062898,-7.093993 c 0.197876,-0.682675 0.296816,-1.197162 0.296819,-1.543463 -3e-6,-0.217656 -0.094,-0.410589 -0.281978,-0.578799 -0.187989,-0.168185 -0.445233,-0.252284 -0.771732,-0.252296 -0.148412,1.2e-5 -0.326503,0.005 -0.534275,0.01484 l 0.192932,-0.59364 5.031096,-0.816254 z"
         style=""
         id="path3759" />
    </g>
  </g>
</svg>
