<?xml version="1.0" encoding="UTF-8" standalone="no"?>
<!-- Created with Inkscape (http://www.inkscape.org/) -->

<svg
   xmlns:dc="http://purl.org/dc/elements/1.1/"
   xmlns:cc="http://creativecommons.org/ns#"
   xmlns:rdf="http://www.w3.org/1999/02/22-rdf-syntax-ns#"
   xmlns:svg="http://www.w3.org/2000/svg"
   xmlns="http://www.w3.org/2000/svg"
   xmlns:sodipodi="http://sodipodi.sourceforge.net/DTD/sodipodi-0.dtd"
   xmlns:inkscape="http://www.inkscape.org/namespaces/inkscape"
   width="48px"
   height="48px"
   id="svg2985"
   version="1.1"
   inkscape:version="0.48.5 r10040"
   sodipodi:docname="PencilBlack2.svg">
  <defs
     id="defs2987" />
  <sodipodi:namedview
     id="base"
     pagecolor="#6a6a6a"
     bordercolor="#666666"
     borderopacity="1.0"
     inkscape:pageopacity="1"
     inkscape:pageshadow="2"
     inkscape:zoom="181.01933"
     inkscape:cx="4.6760293"
     inkscape:cy="4.1102418"
     inkscape:current-layer="layer1"
     showgrid="true"
     inkscape:grid-bbox="true"
     inkscape:document-units="px"
     inkscape:snap-global="true"
     inkscape:window-width="1200"
     inkscape:window-height="1857"
     inkscape:window-x="-8"
     inkscape:window-y="-8"
     inkscape:window-maximized="1" />
  <metadata
     id="metadata2990">
    <rdf:RDF>
      <cc:Work
         rdf:about="">
        <dc:format>image/svg+xml</dc:format>
        <dc:type
           rdf:resource="http://purl.org/dc/dcmitype/StillImage" />
        <dc:title></dc:title>
      </cc:Work>
    </rdf:RDF>
  </metadata>
  <g
     id="layer1"
     inkscape:label="Layer 1"
     inkscape:groupmode="layer">
    <path
       style="fill:#000000;fill-opacity:1;stroke:none"
       d="M 43.151203,4.8536968 C 40.909468,2.6072261 37.929387,1.0976964 36.41737,2.6093527 L 7.962249,31.061091 7.190664,35.8537 l 1.54317,-1.075414 0.07014,-0.07013 22.375966,-22.373305 0.748204,0.748115 -22.329204,22.326548 -0.303957,3.29638 3.296772,-0.303921 22.329203,-22.326549 0.748204,0.748115 -22.375966,22.373305 -0.07014,0.07013 -1.075543,1.542986 4.793179,-0.771493 C 19.12788,37.851712 42.463525,14.51724 45.395812,11.586731 46.897555,10.085888 45.392912,7.1001687 43.151203,4.8536968 z M 34.172759,6.3499262 41.654796,13.831073 37.913777,17.571647 30.431741,10.0905 z M 6.699655,32.323534 6.629515,32.393664 2.000005,46 l 13.607954,-4.628959 0.07014,-0.07013 -4.606129,0.724736 -1.262594,0.187028 0.724822,-1.005279 1.215831,-1.683258 -2.969433,0.257165 -0.631297,0.07013 0.07014,-0.631222 0.257195,-2.969079 -1.683458,1.215685 -1.005399,0.724737 0.187051,-1.262444 z m -1.9172885,8.563684 2.3141695,2.314206 -3.600128,1.302353 z"
       id="path3001"
       inkscape:connector-curvature="0"
       sodipodi:nodetypes="sccccccccccccccccsscccccccccccccccccccccccccc" />
  </g>
</svg>
