<?xml version="1.0" encoding="UTF-8" standalone="no"?>
<!-- Created with Inkscape (http://www.inkscape.org/) -->

<svg
   xmlns:dc="http://purl.org/dc/elements/1.1/"
   xmlns:cc="http://creativecommons.org/ns#"
   xmlns:rdf="http://www.w3.org/1999/02/22-rdf-syntax-ns#"
   xmlns:svg="http://www.w3.org/2000/svg"
   xmlns="http://www.w3.org/2000/svg"
   xmlns:xlink="http://www.w3.org/1999/xlink"
   xmlns:sodipodi="http://sodipodi.sourceforge.net/DTD/sodipodi-0.dtd"
   xmlns:inkscape="http://www.inkscape.org/namespaces/inkscape"
   width="48px"
   height="48px"
   id="svg2985"
   version="1.1"
   inkscape:version="0.48.2 r9819"
   sodipodi:docname="Pencil.svg">
  <defs
     id="defs2987">
    <linearGradient
       id="linearGradient3754">
      <stop
         style="stop-color:#062989;stop-opacity:1;"
         offset="0"
         id="stop3756" />
      <stop
         style="stop-color:#53d1ee;stop-opacity:1;"
         offset="1"
         id="stop3758" />
    </linearGradient>
    <linearGradient
       inkscape:collect="always"
       xlink:href="#linearGradient3754"
       id="linearGradient3760"
       x1="4.474874"
       y1="43.622215"
       x2="40.519917"
       y2="7.736546"
       gradientUnits="userSpaceOnUse" />
  </defs>
  <sodipodi:namedview
     id="base"
     pagecolor="#6a6a6a"
     bordercolor="#666666"
     borderopacity="1.0"
     inkscape:pageopacity="1"
     inkscape:pageshadow="2"
     inkscape:zoom="5.6568542"
     inkscape:cx="6.2186173"
     inkscape:cy="21.954602"
     inkscape:current-layer="layer1"
     showgrid="true"
     inkscape:grid-bbox="true"
     inkscape:document-units="px"
     inkscape:snap-global="true"
     inkscape:window-width="975"
     inkscape:window-height="697"
     inkscape:window-x="433"
     inkscape:window-y="287"
     inkscape:window-maximized="0" />
  <metadata
     id="metadata2990">
    <rdf:RDF>
      <cc:Work
         rdf:about="">
        <dc:format>image/svg+xml</dc:format>
        <dc:type
           rdf:resource="http://purl.org/dc/dcmitype/StillImage" />
        <dc:title></dc:title>
      </cc:Work>
    </rdf:RDF>
  </metadata>
  <g
     id="layer1"
     inkscape:label="Layer 1"
     inkscape:groupmode="layer">
    <path
       style="fill:url(#linearGradient3760);fill-opacity:1;stroke:none"
       d="M 43.151202,4.8536976 C 40.909467,2.6072269 37.929386,1.0976972 36.417369,2.6093535 L 7.9622477,31.061091 7.1906626,35.8537 8.733833,34.778286 l 0.07014,-0.07013 22.375966,-22.373305 0.748204,0.748115 -22.329204,22.326548 -0.303957,3.29638 3.296772,-0.303921 22.329203,-22.326549 0.748204,0.748115 -22.375966,22.373305 -0.07014,0.07013 -1.075543,1.542986 4.793179,-0.771493 C 19.127879,37.851712 42.463524,14.51724 45.395811,11.586731 46.897554,10.085888 45.392911,7.1001695 43.1512,4.8536986 z M 34.172758,6.349927 41.654795,13.831073 37.913776,17.571647 30.43174,10.0905 34.172758,6.349927 z M 6.699654,32.323534 6.62951,32.393664 2,46 l 13.607954,-4.628959 0.07014,-0.07013 -4.606129,0.724736 -1.262594,0.187028 0.724822,-1.005279 1.215831,-1.683258 -2.969433,0.257165 -0.6312973,0.07013 0.070144,-0.631222 0.2571953,-2.969079 -1.6834585,1.215685 -1.0053987,0.724737 0.1870509,-1.262444 0.7248224,-4.605581 z m -1.7068396,7.691555 2.9928147,2.992459 -4.4892226,1.496229 1.4964079,-4.488688 z"
       id="path3001"
       inkscape:connector-curvature="0" />
  </g>
</svg>
