<?xml version="1.0" encoding="UTF-8" standalone="no"?>
<!-- Created with Inkscape (http://www.inkscape.org/) -->

<svg
   xmlns:dc="http://purl.org/dc/elements/1.1/"
   xmlns:cc="http://creativecommons.org/ns#"
   xmlns:rdf="http://www.w3.org/1999/02/22-rdf-syntax-ns#"
   xmlns:svg="http://www.w3.org/2000/svg"
   xmlns="http://www.w3.org/2000/svg"
   xmlns:sodipodi="http://sodipodi.sourceforge.net/DTD/sodipodi-0.dtd"
   xmlns:inkscape="http://www.inkscape.org/namespaces/inkscape"
   id="svg2"
   version="1.1"
   inkscape:version="0.48.5 r10040"
   width="32"
   height="32"
   sodipodi:docname="Send.svg">
  <metadata
     id="metadata8">
    <rdf:RDF>
      <cc:Work
         rdf:about="">
        <dc:format>image/svg+xml</dc:format>
        <dc:type
           rdf:resource="http://purl.org/dc/dcmitype/StillImage" />
        <dc:title></dc:title>
      </cc:Work>
    </rdf:RDF>
  </metadata>
  <defs
     id="defs6" />
  <sodipodi:namedview
     pagecolor="#ffffff"
     bordercolor="#666666"
     borderopacity="1"
     objecttolerance="10"
     gridtolerance="10"
     guidetolerance="10"
     inkscape:pageopacity="0"
     inkscape:pageshadow="2"
     inkscape:window-width="1200"
     inkscape:window-height="1857"
     id="namedview4"
     showgrid="false"
     inkscape:zoom="14.75"
     inkscape:cx="-0.64378207"
     inkscape:cy="17.021347"
     inkscape:window-x="-8"
     inkscape:window-y="-8"
     inkscape:window-maximized="1"
     inkscape:current-layer="svg2" />
  <rect
     style="fill:none;stroke:#000000;stroke-width:1.86660767;stroke-miterlimit:4;stroke-opacity:1;stroke-dasharray:none"
     id="rect2989"
     width="28.133392"
     height="23.133392"
     x="1.9333038"
     y="4.4333038" />
  <g
     transform="scale(1.0067902,0.99325559)"
     style="font-size:9px;font-style:normal;font-weight:normal;line-height:100%;letter-spacing:0px;word-spacing:0px;fill:#000000;fill-opacity:1;stroke:none;font-family:Sans"
     id="text3761">
    <path
       d="m 3.7653806,10.808672 1.265625,-0.123047 c 0.07617,0.424807 0.2307111,0.736818 0.4636231,0.936035 0.2329078,0.19922 0.5471165,0.298829 0.9426269,0.298828 0.4189419,10e-7 0.7346154,-0.08862 0.9470215,-0.265869 0.2123982,-0.177244 0.3185993,-0.38452 0.3186035,-0.621826 -4.2e-6,-0.152342 -0.044682,-0.28198 -0.1340332,-0.388916 C 7.4794879,10.536946 7.3234822,10.443928 7.1008298,10.364824 6.9484826,10.312093 6.601315,10.218343 6.0593259,10.083574 5.3620584,9.9107257 4.8728011,9.6983236 4.5915525,9.4463673 4.1960439,9.0918789 3.9982902,8.6597504 3.9982908,8.1499805 3.9982902,7.8218606 4.0913077,7.5149762 4.2773435,7.2293262 4.4633776,6.9436877 4.7314438,6.7261586 5.0815427,6.5767384 5.4316384,6.4273308 5.8542454,6.3526238 6.349365,6.3526173 c 0.80859,6.5e-6 1.417232,0.1772524 1.8259277,0.5317382 0.4086863,0.3544979 0.6232857,0.827642 0.6437989,1.4194336 L 7.5183103,8.360918 C 7.4626422,8.0298682 7.3432576,7.7918314 7.160156,7.6468067 6.977047,7.5017926 6.7023891,7.4292829 6.3361814,7.4292774 c -0.3779322,5.5e-6 -0.6738303,0.077642 -0.8876953,0.2329102 -0.1376972,0.099614 -0.2065448,0.2329151 -0.206543,0.3999023 -1.8e-6,0.1523485 0.064451,0.2827194 0.1933594,0.3911133 0.1640603,0.1376996 0.5624974,0.2812542 1.1953125,0.4306641 0.6328087,0.1494179 1.1008258,0.3039588 1.4040527,0.463623 0.3032178,0.1596714 0.5405222,0.3779329 0.7119141,0.6547847 0.1713812,0.276859 0.2570745,0.618899 0.2570801,1.026124 -5.6e-6,0.369142 -0.1025446,0.714844 -0.3076172,1.037109 -0.2050832,0.322266 -0.495122,0.561768 -0.8701172,0.718506 -0.375004,0.156738 -0.8422887,0.235107 -1.4018555,0.235107 -0.8144553,0 -1.4399429,-0.188232 -1.8764648,-0.564697 C 4.1110831,12.07796 3.8503411,11.529376 3.7653806,10.808672 z"
       style="font-weight:bold;line-height:100%;-inkscape-font-specification:Sans Bold"
       id="path2992" />
    <path
       d="m 10.106689,12.904863 0,-6.4423825 4.776856,0 0,1.0898438 -3.476075,0 0,1.4282227 3.234375,0 0,1.085449 -3.234375,0 0,1.753418 3.599122,0 0,1.085449 z"
       style="font-weight:bold;line-height:100%;-inkscape-font-specification:Sans Bold"
       id="path2994" />
    <path
       d="m 16.131592,12.904863 0,-6.4423825 1.265625,0 2.636718,4.3022465 0,-4.3022465 1.208496,0 0,6.4423825 -1.305175,0 -2.597168,-4.2011715 0,4.2011715 z"
       style="font-weight:bold;line-height:100%;-inkscape-font-specification:Sans Bold"
       id="path2996" />
    <path
       d="m 22.61792,6.4624805 2.377441,0 c 0.536129,6.5e-6 0.94482,0.041022 1.226074,0.1230469 0.377925,0.1113344 0.701656,0.3090881 0.971192,0.5932617 0.269525,0.2841852 0.474603,0.6320852 0.615234,1.0437012 0.140619,0.4116254 0.210932,0.9191932 0.210938,1.5227051 -6e-6,0.5302756 -0.06592,0.9873066 -0.197754,1.3710936 -0.161139,0.468751 -0.391119,0.848146 -0.689942,1.138184 -0.225591,0.219727 -0.530278,0.391113 -0.914062,0.51416 -0.287114,0.09082 -0.670902,0.13623 -1.151367,0.13623 l -2.447754,0 z m 1.300781,1.0898438 0,4.2670897 0.971191,0 c 0.363278,10e-7 0.625485,-0.02051 0.786621,-0.06152 0.210934,-0.05273 0.385983,-0.142089 0.525147,-0.268067 0.139156,-0.125975 0.252681,-0.33325 0.340576,-0.621826 0.08789,-0.288572 0.131831,-0.681882 0.131836,-1.1799315 -5e-6,-0.4980432 -0.04395,-0.880367 -0.131836,-1.1469727 -0.08789,-0.2665969 -0.210942,-0.4746045 -0.369141,-0.6240234 -0.158207,-0.1494089 -0.35889,-0.2504831 -0.60205,-0.3032227 -0.181644,-0.04101 -0.537601,-0.061518 -1.067871,-0.061523 z"
       style="font-weight:bold;line-height:100%;-inkscape-font-specification:Sans Bold"
       id="path2998" />
  </g>
  <path
     sodipodi:type="arc"
     style="fill:#000000;fill-opacity:1;stroke:none"
     id="path3777"
     sodipodi:cx="-37.762711"
     sodipodi:cy="1.2881355"
     sodipodi:rx="3.118644"
     sodipodi:ry="3.118644"
     d="m -34.644067,1.2881355 a 3.118644,3.118644 0 1 1 -6.237288,0 3.118644,3.118644 0 1 1 6.237288,0 z"
     transform="matrix(0.93964117,0,0,0.9270092,44.941971,16.488453)" />
  <path
     style="fill:#000000;fill-opacity:1;fill-rule:nonzero;stroke:none"
     d="m 14.236409,25.5308 c 0,0.284446 -2.323561,0.188544 -5.0326534,0.188544 -2.7090926,0 -4.7778363,0.0959 -4.7778363,-0.188544 0,-2.672673 2.1961525,-4.839302 4.905245,-4.839302 2.7090927,0 4.9052447,2.166629 4.9052447,4.839302 z"
     id="path3779"
     inkscape:connector-curvature="0"
     sodipodi:nodetypes="sssss" />
  <rect
     style="fill:#000000;fill-opacity:1;fill-rule:nonzero;stroke:none"
     id="rect3793"
     width="1.3696465"
     height="1.9482903"
     x="15.315178"
     y="18.876682" />
  <path
     transform="matrix(0.93964117,0,0,0.9270092,58.415471,16.488453)"
     sodipodi:type="arc"
     style="fill:#000000;fill-opacity:1;stroke:none"
     id="path3777-4"
     sodipodi:cx="-37.762711"
     sodipodi:cy="1.2881355"
     sodipodi:rx="3.118644"
     sodipodi:ry="3.118644"
     d="m -34.644067,1.2881355 a 3.118644,3.118644 0 1 1 -6.237288,0 3.118644,3.118644 0 1 1 6.237288,0 z" />
  <path
     style="fill:#000000;fill-opacity:1;fill-rule:nonzero;stroke:none"
     d="m 27.709908,25.530799 c 0,0.284447 -2.323561,0.188544 -5.032656,0.188544 -2.709092,0 -4.777836,0.0959 -4.777836,-0.188544 0,-2.672673 2.196154,-4.839301 4.905247,-4.839301 2.709093,0 4.905245,2.166628 4.905245,4.839301 z"
     id="path3779-0"
     inkscape:connector-curvature="0"
     sodipodi:nodetypes="sssss" />
  <rect
     style="fill:#000000;fill-opacity:1;fill-rule:nonzero;stroke:none"
     id="rect3793-9"
     width="1.3696465"
     height="1.9482903"
     x="-14.359175"
     y="-20.824972"
     transform="scale(-1,-1)" />
  <rect
     style="fill:#000000;fill-opacity:1;fill-rule:nonzero;stroke:none"
     id="rect3793-9-1"
     width="1.3696465"
     height="1.9482903"
     x="-19.010473"
     y="-20.824972"
     transform="scale(-1,-1)" />
</svg>
